<?xml version="1.0" encoding="UTF-8" standalone="no"?>
<!DOCTYPE svg PUBLIC "-//W3C//DTD SVG 1.1//EN"
 "http://www.w3.org/Graphics/SVG/1.1/DTD/svg11.dtd">
<!-- Generated by graphviz version 2.43.0 (0)
 -->
<!-- Title: Evaluation Pages: 1 -->
<svg width="282pt" height="229pt"
 viewBox="0.00 0.00 281.99 229.00" xmlns="http://www.w3.org/2000/svg" xmlns:xlink="http://www.w3.org/1999/xlink">
<g id="graph0" class="graph" transform="scale(1 1) rotate(0) translate(4 225)">
<title>Evaluation</title>
<polygon fill="white" stroke="transparent" points="-4,4 -4,-225 277.99,-225 277.99,4 -4,4"/>
<text text-anchor="middle" x="136.99" y="-205.8" font-family="Times,serif" font-size="14.00">step 0012 :: • skipped</text>
<!-- n1 -->
<g id="node1" class="node">
<title>n1</title>
<ellipse fill="#eeeeff" stroke="#dd3333" stroke-width="2" cx="32.5" cy="-99" rx="32.49" ry="18"/>
<text text-anchor="middle" x="32.5" y="-95.3" font-family="monospace" font-size="14.00">pair</text>
</g>
<!-- n2 -->
<g id="node2" class="node">
<title>n2</title>
<ellipse fill="#eeeeff" stroke="black" cx="142.49" cy="-126" rx="32.49" ry="18"/>
<text text-anchor="middle" x="142.49" y="-122.3" font-family="monospace" font-size="14.00">pair</text>
</g>
<!-- n1&#45;&gt;n2 -->
<g id="edge1" class="edge">
<title>n1&#45;&gt;n2</title>
<path fill="none" stroke="black" d="M62.44,-106.24C74.78,-109.32 89.38,-112.97 102.64,-116.29"/>
<polygon fill="black" stroke="black" points="101.92,-119.71 112.47,-118.74 103.62,-112.92 101.92,-119.71"/>
<text text-anchor="middle" x="87.49" y="-116.8" font-family="monospace" font-size="14.00">L</text>
</g>
<!-- n5 -->
<g id="node5" class="node">
<title>n5</title>
<ellipse fill="#eeeeff" stroke="black" cx="142.49" cy="-72" rx="32.49" ry="18"/>
<text text-anchor="middle" x="142.49" y="-68.3" font-family="monospace" font-size="14.00">pair</text>
</g>
<!-- n1&#45;&gt;n5 -->
<g id="edge4" class="edge">
<title>n1&#45;&gt;n5</title>
<path fill="none" stroke="black" d="M62.44,-91.76C74.78,-88.68 89.38,-85.03 102.64,-81.71"/>
<polygon fill="black" stroke="black" points="103.62,-85.08 112.47,-79.26 101.92,-78.29 103.62,-85.08"/>
<text text-anchor="middle" x="87.49" y="-89.8" font-family="monospace" font-size="14.00">R</text>
</g>
<!-- n3 -->
<g id="node3" class="node">
<title>n3</title>
<text text-anchor="middle" x="246.99" y="-176.3" font-family="monospace" font-size="14.00">a</text>
</g>
<!-- n2&#45;&gt;n3 -->
<g id="edge2" class="edge">
<title>n2&#45;&gt;n3</title>
<path fill="none" stroke="black" d="M166.75,-138.25C179.73,-145.09 196.18,-153.76 210.72,-161.42"/>
<polygon fill="black" stroke="black" points="209.46,-164.71 219.94,-166.28 212.72,-158.52 209.46,-164.71"/>
<text text-anchor="middle" x="197.49" y="-159.8" font-family="monospace" font-size="14.00">L</text>
</g>
<!-- n4 -->
<g id="node4" class="node">
<title>n4</title>
<text text-anchor="middle" x="246.99" y="-122.3" font-family="monospace" font-size="14.00">c</text>
</g>
<!-- n2&#45;&gt;n4 -->
<g id="edge3" class="edge">
<title>n2&#45;&gt;n4</title>
<path fill="none" stroke="black" d="M175.08,-126C186.07,-126 198.48,-126 209.81,-126"/>
<polygon fill="black" stroke="black" points="209.84,-129.5 219.84,-126 209.84,-122.5 209.84,-129.5"/>
<text text-anchor="middle" x="197.49" y="-129.8" font-family="monospace" font-size="14.00">R</text>
</g>
<!-- n6 -->
<g id="node6" class="node">
<title>n6</title>
<text text-anchor="middle" x="246.99" y="-68.3" font-family="monospace" font-size="14.00">b</text>
</g>
<!-- n5&#45;&gt;n6 -->
<g id="edge5" class="edge">
<title>n5&#45;&gt;n6</title>
<path fill="none" stroke="black" d="M175.08,-72C186.07,-72 198.48,-72 209.81,-72"/>
<polygon fill="black" stroke="black" points="209.84,-75.5 219.84,-72 209.84,-68.5 209.84,-75.5"/>
<text text-anchor="middle" x="197.49" y="-75.8" font-family="monospace" font-size="14.00">L</text>
</g>
<!-- n7 -->
<g id="node7" class="node">
<title>n7</title>
<text text-anchor="middle" x="246.99" y="-14.3" font-family="monospace" font-size="14.00">c</text>
</g>
<!-- n5&#45;&gt;n7 -->
<g id="edge6" class="edge">
<title>n5&#45;&gt;n7</title>
<path fill="none" stroke="black" d="M166.75,-59.75C179.73,-52.91 196.18,-44.24 210.72,-36.58"/>
<polygon fill="black" stroke="black" points="212.72,-39.48 219.94,-31.72 209.46,-33.29 212.72,-39.48"/>
<text text-anchor="middle" x="197.49" y="-48.8" font-family="monospace" font-size="14.00">R</text>
</g>
</g>
</svg>
