<?xml version="1.0" encoding="UTF-8" standalone="no"?>
<!DOCTYPE svg PUBLIC "-//W3C//DTD SVG 1.1//EN"
 "http://www.w3.org/Graphics/SVG/1.1/DTD/svg11.dtd">
<!-- Generated by graphviz version 2.43.0 (0)
 -->
<!-- Title: Evaluation Pages: 1 -->
<svg width="670pt" height="272pt"
 viewBox="0.00 0.00 670.20 272.00" xmlns="http://www.w3.org/2000/svg" xmlns:xlink="http://www.w3.org/1999/xlink">
<g id="graph0" class="graph" transform="scale(1 1) rotate(0) translate(4 268)">
<title>Evaluation</title>
<polygon fill="white" stroke="transparent" points="-4,4 -4,-268 666.2,-268 666.2,4 -4,4"/>
<text text-anchor="middle" x="331.1" y="-248.8" font-family="Times,serif" font-size="14.00">step 0006 :: •RL skipped</text>
<!-- n1 -->
<g id="node1" class="node">
<title>n1</title>
<ellipse fill="#eeeeff" stroke="black" cx="32.5" cy="-176" rx="32.49" ry="18"/>
<text text-anchor="middle" x="32.5" y="-172.3" font-family="monospace" font-size="14.00">pair</text>
</g>
<!-- n2 -->
<g id="node2" class="node">
<title>n2</title>
<ellipse fill="#ddffee" stroke="black" cx="608.26" cy="-126" rx="53.89" ry="53.89"/>
<text text-anchor="middle" x="608.26" y="-122.3" font-family="monospace" font-size="14.00">binder#3</text>
</g>
<!-- n1&#45;&gt;n2 -->
<g id="edge1" class="edge">
<title>n1&#45;&gt;n2</title>
<path fill="none" stroke="black" d="M52.19,-190.73C72.82,-205.48 107.61,-226 141.49,-226 141.49,-226 141.49,-226 391.65,-226 452.64,-226 515.08,-192.66 556.96,-164.48"/>
<polygon fill="black" stroke="black" points="559.06,-167.29 565.32,-158.74 555.09,-161.52 559.06,-167.29"/>
<text text-anchor="middle" x="252.49" y="-229.8" font-family="monospace" font-size="14.00">L</text>
</g>
<!-- n3 -->
<g id="node3" class="node">
<title>n3</title>
<ellipse fill="#eeeeff" stroke="black" cx="142.49" cy="-134" rx="32.49" ry="18"/>
<text text-anchor="middle" x="142.49" y="-130.3" font-family="monospace" font-size="14.00">pair</text>
</g>
<!-- n1&#45;&gt;n3 -->
<g id="edge2" class="edge">
<title>n1&#45;&gt;n3</title>
<path fill="none" stroke="black" d="M59.64,-165.83C73.47,-160.46 90.65,-153.77 105.69,-147.92"/>
<polygon fill="black" stroke="black" points="107.16,-151.11 115.22,-144.22 104.63,-144.58 107.16,-151.11"/>
<text text-anchor="middle" x="87.49" y="-159.8" font-family="monospace" font-size="14.00">R</text>
</g>
<!-- n4 -->
<g id="node4" class="node">
<title>n4</title>
<ellipse fill="#eeeeff" stroke="#dd3333" stroke-width="2" cx="252.49" cy="-134" rx="32.49" ry="18"/>
<text text-anchor="middle" x="252.49" y="-130.3" font-family="monospace" font-size="14.00">pair</text>
</g>
<!-- n3&#45;&gt;n4 -->
<g id="edge3" class="edge">
<title>n3&#45;&gt;n4</title>
<path fill="none" stroke="black" d="M175.02,-134C185.79,-134 198.02,-134 209.48,-134"/>
<polygon fill="black" stroke="black" points="209.73,-137.5 219.73,-134 209.73,-130.5 209.73,-137.5"/>
<text text-anchor="middle" x="197.49" y="-137.8" font-family="monospace" font-size="14.00">L</text>
</g>
<!-- n7 -->
<g id="node7" class="node">
<title>n7</title>
<ellipse fill="#eeeeff" stroke="black" cx="252.49" cy="-72" rx="32.49" ry="18"/>
<text text-anchor="middle" x="252.49" y="-68.3" font-family="monospace" font-size="14.00">pair</text>
</g>
<!-- n3&#45;&gt;n7 -->
<g id="edge7" class="edge">
<title>n3&#45;&gt;n7</title>
<path fill="none" stroke="black" d="M165.61,-121.3C181.48,-112.19 203.07,-99.8 220.63,-89.71"/>
<polygon fill="black" stroke="black" points="222.47,-92.69 229.4,-84.68 218.99,-86.62 222.47,-92.69"/>
<text text-anchor="middle" x="197.49" y="-108.8" font-family="monospace" font-size="14.00">R</text>
</g>
<!-- n5 -->
<g id="node5" class="node">
<title>n5</title>
<text text-anchor="middle" x="390.65" y="-176.3" font-family="monospace" font-size="14.00">a</text>
</g>
<!-- n4&#45;&gt;n5 -->
<g id="edge4" class="edge">
<title>n4&#45;&gt;n5</title>
<path fill="none" stroke="black" d="M280.71,-143.2C301.67,-150.28 330.82,-160.13 353.7,-167.85"/>
<polygon fill="black" stroke="black" points="352.8,-171.25 363.39,-171.13 355.04,-164.61 352.8,-171.25"/>
<text text-anchor="middle" x="307.48" y="-155.8" font-family="monospace" font-size="14.00">L</text>
</g>
<!-- n6 -->
<g id="node6" class="node">
<title>n6</title>
<path fill="none" stroke="black" d="M379.14,-140.6C379.14,-140.6 341.32,-129.4 341.32,-129.4 335.57,-127.7 335.57,-124.3 341.32,-122.6 341.32,-122.6 379.14,-111.4 379.14,-111.4 384.89,-109.7 396.4,-109.7 402.15,-111.4 402.15,-111.4 439.97,-122.6 439.97,-122.6 445.72,-124.3 445.72,-127.7 439.97,-129.4 439.97,-129.4 402.15,-140.6 402.15,-140.6 396.4,-142.3 384.89,-142.3 379.14,-140.6"/>
<text text-anchor="middle" x="390.65" y="-122.3" font-family="monospace" font-size="14.00">slot→3</text>
</g>
<!-- n4&#45;&gt;n6 -->
<g id="edge5" class="edge">
<title>n4&#45;&gt;n6</title>
<path fill="none" stroke="black" d="M285.07,-132.14C298.22,-131.37 313.94,-130.45 329.16,-129.55"/>
<polygon fill="black" stroke="black" points="329.8,-133.02 339.57,-128.94 329.39,-126.03 329.8,-133.02"/>
<text text-anchor="middle" x="307.48" y="-134.8" font-family="monospace" font-size="14.00">R</text>
</g>
<!-- n6&#45;&gt;n2 -->
<g id="edge6" class="edge">
<title>n6&#45;&gt;n2</title>
<path fill="none" stroke="#888888" stroke-dasharray="5,2" d="M451.42,-126C480.18,-126 514.68,-126 543.9,-126"/>
<polygon fill="#888888" stroke="#888888" points="543.99,-129.5 553.99,-126 543.99,-122.5 543.99,-129.5"/>
<text text-anchor="middle" x="502.81" y="-129.8" font-family="monospace" font-size="14.00">re&#45;enter</text>
</g>
<!-- n8 -->
<g id="node8" class="node">
<title>n8</title>
<text text-anchor="middle" x="390.65" y="-68.3" font-family="monospace" font-size="14.00">b</text>
</g>
<!-- n7&#45;&gt;n8 -->
<g id="edge8" class="edge">
<title>n7&#45;&gt;n8</title>
<path fill="none" stroke="black" d="M285.07,-72C305.36,-72 331.8,-72 353.02,-72"/>
<polygon fill="black" stroke="black" points="353.27,-75.5 363.27,-72 353.27,-68.5 353.27,-75.5"/>
<text text-anchor="middle" x="307.48" y="-75.8" font-family="monospace" font-size="14.00">L</text>
</g>
<!-- n9 -->
<g id="node9" class="node">
<title>n9</title>
<path fill="none" stroke="black" d="M379.14,-32.6C379.14,-32.6 341.32,-21.4 341.32,-21.4 335.57,-19.7 335.57,-16.3 341.32,-14.6 341.32,-14.6 379.14,-3.4 379.14,-3.4 384.89,-1.7 396.4,-1.7 402.15,-3.4 402.15,-3.4 439.97,-14.6 439.97,-14.6 445.72,-16.3 445.72,-19.7 439.97,-21.4 439.97,-21.4 402.15,-32.6 402.15,-32.6 396.4,-34.3 384.89,-34.3 379.14,-32.6"/>
<text text-anchor="middle" x="390.65" y="-14.3" font-family="monospace" font-size="14.00">slot→3</text>
</g>
<!-- n7&#45;&gt;n9 -->
<g id="edge9" class="edge">
<title>n7&#45;&gt;n9</title>
<path fill="none" stroke="black" d="M279.42,-61.72C300.62,-53.31 330.81,-41.34 354.23,-32.05"/>
<polygon fill="black" stroke="black" points="355.81,-35.19 363.81,-28.25 353.23,-28.68 355.81,-35.19"/>
<text text-anchor="middle" x="307.48" y="-55.8" font-family="monospace" font-size="14.00">R</text>
</g>
<!-- n9&#45;&gt;n2 -->
<g id="edge10" class="edge">
<title>n9&#45;&gt;n2</title>
<path fill="none" stroke="#888888" stroke-dasharray="5,2" d="M415.88,-28.61C426.77,-33.47 439.75,-39.39 451.31,-45 484.89,-61.3 521.99,-80.52 551.58,-96.15"/>
<polygon fill="#888888" stroke="#888888" points="550.03,-99.29 560.51,-100.88 553.3,-93.1 550.03,-99.29"/>
<text text-anchor="middle" x="502.81" y="-90.8" font-family="monospace" font-size="14.00">re&#45;enter</text>
</g>
</g>
</svg>
