<?xml version="1.0" encoding="UTF-8" standalone="no"?>
<!DOCTYPE svg PUBLIC "-//W3C//DTD SVG 1.1//EN"
 "http://www.w3.org/Graphics/SVG/1.1/DTD/svg11.dtd">
<!-- Generated by graphviz version 2.43.0 (0)
 -->
<!-- Title: Evaluation Pages: 1 -->
<svg width="780pt" height="332pt"
 viewBox="0.00 0.00 780.20 331.89" xmlns="http://www.w3.org/2000/svg" xmlns:xlink="http://www.w3.org/1999/xlink">
<g id="graph0" class="graph" transform="scale(1 1) rotate(0) translate(4 327.89)">
<title>Evaluation</title>
<polygon fill="white" stroke="transparent" points="-4,4 -4,-327.89 776.2,-327.89 776.2,4 -4,4"/>
<text text-anchor="middle" x="386.1" y="-308.69" font-family="Times,serif" font-size="14.00">step 0005 :: • skipped</text>
<!-- n1 -->
<g id="node1" class="node">
<title>n1</title>
<ellipse fill="#eeeeff" stroke="#dd3333" stroke-width="2" cx="32.5" cy="-211.95" rx="32.49" ry="18"/>
<text text-anchor="middle" x="32.5" y="-208.25" font-family="monospace" font-size="14.00">pair</text>
</g>
<!-- n2 -->
<g id="node2" class="node">
<title>n2</title>
<ellipse fill="#ddffee" stroke="black" cx="718.25" cy="-246.95" rx="53.89" ry="53.89"/>
<text text-anchor="middle" x="718.25" y="-243.25" font-family="monospace" font-size="14.00">binder#2</text>
</g>
<!-- n1&#45;&gt;n2 -->
<g id="edge1" class="edge">
<title>n1&#45;&gt;n2</title>
<path fill="none" stroke="black" d="M52.19,-226.68C72.82,-241.43 107.61,-261.95 141.49,-261.95 141.49,-261.95 141.49,-261.95 501.64,-261.95 553.23,-261.95 611.59,-257.62 654.57,-253.61"/>
<polygon fill="black" stroke="black" points="654.98,-257.09 664.6,-252.66 654.31,-250.12 654.98,-257.09"/>
<text text-anchor="middle" x="307.48" y="-265.75" font-family="monospace" font-size="14.00">L</text>
</g>
<!-- n3 -->
<g id="node3" class="node">
<title>n3</title>
<ellipse fill="#eeeeff" stroke="black" cx="142.49" cy="-130.95" rx="32.49" ry="18"/>
<text text-anchor="middle" x="142.49" y="-127.25" font-family="monospace" font-size="14.00">pair</text>
</g>
<!-- n1&#45;&gt;n3 -->
<g id="edge2" class="edge">
<title>n1&#45;&gt;n3</title>
<path fill="none" stroke="black" d="M52.56,-197.65C69.65,-184.83 94.92,-165.88 114.16,-151.44"/>
<polygon fill="black" stroke="black" points="116.36,-154.17 122.26,-145.37 112.16,-148.57 116.36,-154.17"/>
<text text-anchor="middle" x="87.49" y="-177.75" font-family="monospace" font-size="14.00">R</text>
</g>
<!-- n4 -->
<g id="node4" class="node">
<title>n4</title>
<ellipse fill="#ddffee" stroke="black" cx="718.25" cy="-53.95" rx="53.89" ry="53.89"/>
<text text-anchor="middle" x="718.25" y="-50.25" font-family="monospace" font-size="14.00">binder#3</text>
</g>
<!-- n3&#45;&gt;n4 -->
<g id="edge3" class="edge">
<title>n3&#45;&gt;n4</title>
<path fill="none" stroke="black" d="M149.53,-113.32C162.42,-79.31 196.07,-7.95 251.49,-7.95 251.49,-7.95 251.49,-7.95 501.64,-7.95 555.08,-7.95 614.37,-21.63 657.22,-34.07"/>
<polygon fill="black" stroke="black" points="656.35,-37.46 666.93,-36.95 658.33,-30.75 656.35,-37.46"/>
<text text-anchor="middle" x="362.48" y="-11.75" font-family="monospace" font-size="14.00">L</text>
</g>
<!-- n5 -->
<g id="node5" class="node">
<title>n5</title>
<ellipse fill="#eeeeff" stroke="black" cx="252.49" cy="-130.95" rx="32.49" ry="18"/>
<text text-anchor="middle" x="252.49" y="-127.25" font-family="monospace" font-size="14.00">pair</text>
</g>
<!-- n3&#45;&gt;n5 -->
<g id="edge4" class="edge">
<title>n3&#45;&gt;n5</title>
<path fill="none" stroke="black" d="M175.02,-130.95C185.79,-130.95 198.02,-130.95 209.48,-130.95"/>
<polygon fill="black" stroke="black" points="209.73,-134.45 219.73,-130.95 209.73,-127.45 209.73,-134.45"/>
<text text-anchor="middle" x="197.49" y="-134.75" font-family="monospace" font-size="14.00">R</text>
</g>
<!-- n6 -->
<g id="node6" class="node">
<title>n6</title>
<ellipse fill="#eeeeff" stroke="black" cx="362.48" cy="-107.95" rx="32.49" ry="18"/>
<text text-anchor="middle" x="362.48" y="-104.25" font-family="monospace" font-size="14.00">pair</text>
</g>
<!-- n5&#45;&gt;n6 -->
<g id="edge5" class="edge">
<title>n5&#45;&gt;n6</title>
<path fill="none" stroke="black" d="M281.34,-122.42C288.36,-120.45 295.91,-118.48 302.98,-116.95 308.71,-115.7 314.78,-114.56 320.77,-113.55"/>
<polygon fill="black" stroke="black" points="321.37,-117 330.69,-111.96 320.26,-110.09 321.37,-117"/>
<text text-anchor="middle" x="307.48" y="-120.75" font-family="monospace" font-size="14.00">L</text>
</g>
<!-- n9 -->
<g id="node9" class="node">
<title>n9</title>
<ellipse fill="#eeeeff" stroke="black" cx="362.48" cy="-161.95" rx="32.49" ry="18"/>
<text text-anchor="middle" x="362.48" y="-158.25" font-family="monospace" font-size="14.00">pair</text>
</g>
<!-- n5&#45;&gt;n9 -->
<g id="edge9" class="edge">
<title>n5&#45;&gt;n9</title>
<path fill="none" stroke="black" d="M281.58,-139.01C294.35,-142.68 309.66,-147.07 323.44,-151.03"/>
<polygon fill="black" stroke="black" points="322.58,-154.42 333.15,-153.81 324.51,-147.69 322.58,-154.42"/>
<text text-anchor="middle" x="307.48" y="-151.75" font-family="monospace" font-size="14.00">R</text>
</g>
<!-- n7 -->
<g id="node7" class="node">
<title>n7</title>
<text text-anchor="middle" x="500.64" y="-104.25" font-family="monospace" font-size="14.00">a</text>
</g>
<!-- n6&#45;&gt;n7 -->
<g id="edge6" class="edge">
<title>n6&#45;&gt;n7</title>
<path fill="none" stroke="black" d="M395.06,-107.95C415.36,-107.95 441.8,-107.95 463.02,-107.95"/>
<polygon fill="black" stroke="black" points="463.27,-111.45 473.27,-107.95 463.27,-104.45 463.27,-111.45"/>
<text text-anchor="middle" x="417.48" y="-111.75" font-family="monospace" font-size="14.00">L</text>
</g>
<!-- n8 -->
<g id="node8" class="node">
<title>n8</title>
<path fill="none" stroke="black" d="M489.13,-68.54C489.13,-68.54 451.32,-57.35 451.32,-57.35 445.57,-55.65 445.57,-52.24 451.32,-50.54 451.32,-50.54 489.13,-39.35 489.13,-39.35 494.89,-37.65 506.39,-37.65 512.15,-39.35 512.15,-39.35 549.96,-50.54 549.96,-50.54 555.72,-52.24 555.72,-55.65 549.96,-57.35 549.96,-57.35 512.15,-68.54 512.15,-68.54 506.39,-70.24 494.89,-70.24 489.13,-68.54"/>
<text text-anchor="middle" x="500.64" y="-50.25" font-family="monospace" font-size="14.00">slot→3</text>
</g>
<!-- n6&#45;&gt;n8 -->
<g id="edge7" class="edge">
<title>n6&#45;&gt;n8</title>
<path fill="none" stroke="black" d="M389.41,-97.66C410.61,-89.25 440.8,-77.28 464.23,-67.99"/>
<polygon fill="black" stroke="black" points="465.8,-71.13 473.81,-64.19 463.22,-64.62 465.8,-71.13"/>
<text text-anchor="middle" x="417.48" y="-91.75" font-family="monospace" font-size="14.00">R</text>
</g>
<!-- n8&#45;&gt;n4 -->
<g id="edge8" class="edge">
<title>n8&#45;&gt;n4</title>
<path fill="none" stroke="#888888" stroke-dasharray="5,2" d="M561.41,-53.95C590.18,-53.95 624.67,-53.95 653.89,-53.95"/>
<polygon fill="#888888" stroke="#888888" points="653.99,-57.45 663.99,-53.95 653.99,-50.45 653.99,-57.45"/>
<text text-anchor="middle" x="612.81" y="-57.75" font-family="monospace" font-size="14.00">re&#45;enter</text>
</g>
<!-- n10 -->
<g id="node10" class="node">
<title>n10</title>
<path fill="none" stroke="black" d="M489.13,-230.54C489.13,-230.54 451.32,-219.35 451.32,-219.35 445.57,-217.65 445.57,-214.24 451.32,-212.54 451.32,-212.54 489.13,-201.35 489.13,-201.35 494.89,-199.65 506.39,-199.65 512.15,-201.35 512.15,-201.35 549.96,-212.54 549.96,-212.54 555.72,-214.24 555.72,-217.65 549.96,-219.35 549.96,-219.35 512.15,-230.54 512.15,-230.54 506.39,-232.24 494.89,-232.24 489.13,-230.54"/>
<text text-anchor="middle" x="500.64" y="-212.25" font-family="monospace" font-size="14.00">slot→2</text>
</g>
<!-- n9&#45;&gt;n10 -->
<g id="edge10" class="edge">
<title>n9&#45;&gt;n10</title>
<path fill="none" stroke="black" d="M389.41,-172.23C410.61,-180.64 440.8,-192.61 464.23,-201.9"/>
<polygon fill="black" stroke="black" points="463.22,-205.27 473.81,-205.7 465.8,-198.76 463.22,-205.27"/>
<text text-anchor="middle" x="417.48" y="-188.75" font-family="monospace" font-size="14.00">L</text>
</g>
<!-- n11 -->
<g id="node11" class="node">
<title>n11</title>
<path fill="none" stroke="black" d="M489.13,-176.54C489.13,-176.54 451.32,-165.35 451.32,-165.35 445.57,-163.65 445.57,-160.24 451.32,-158.54 451.32,-158.54 489.13,-147.35 489.13,-147.35 494.89,-145.65 506.39,-145.65 512.15,-147.35 512.15,-147.35 549.96,-158.54 549.96,-158.54 555.72,-160.24 555.72,-163.65 549.96,-165.35 549.96,-165.35 512.15,-176.54 512.15,-176.54 506.39,-178.24 494.89,-178.24 489.13,-176.54"/>
<text text-anchor="middle" x="500.64" y="-158.25" font-family="monospace" font-size="14.00">slot→3</text>
</g>
<!-- n9&#45;&gt;n11 -->
<g id="edge12" class="edge">
<title>n9&#45;&gt;n11</title>
<path fill="none" stroke="black" d="M395.06,-161.95C405.49,-161.95 417.55,-161.95 429.69,-161.95"/>
<polygon fill="black" stroke="black" points="429.87,-165.45 439.87,-161.95 429.87,-158.45 429.87,-165.45"/>
<text text-anchor="middle" x="417.48" y="-165.75" font-family="monospace" font-size="14.00">R</text>
</g>
<!-- n10&#45;&gt;n2 -->
<g id="edge11" class="edge">
<title>n10&#45;&gt;n2</title>
<path fill="none" stroke="#888888" stroke-dasharray="5,2" d="M546.73,-220.33C575.33,-223.34 613.08,-227.72 646.31,-232.95 649.15,-233.39 652.06,-233.87 655,-234.38"/>
<polygon fill="#888888" stroke="#888888" points="654.57,-237.85 665.03,-236.16 655.8,-230.96 654.57,-237.85"/>
<text text-anchor="middle" x="612.81" y="-236.75" font-family="monospace" font-size="14.00">re&#45;enter</text>
</g>
<!-- n11&#45;&gt;n4 -->
<g id="edge13" class="edge">
<title>n11&#45;&gt;n4</title>
<path fill="none" stroke="#888888" stroke-dasharray="5,2" d="M525.87,-151.34C536.77,-146.47 549.75,-140.56 561.31,-134.95 594.88,-118.64 631.98,-99.42 661.57,-83.8"/>
<polygon fill="#888888" stroke="#888888" points="663.3,-86.84 670.5,-79.07 660.02,-80.66 663.3,-86.84"/>
<text text-anchor="middle" x="612.81" y="-128.75" font-family="monospace" font-size="14.00">re&#45;enter</text>
</g>
</g>
</svg>
