<?xml version="1.0" encoding="UTF-8" standalone="no"?>
<!DOCTYPE svg PUBLIC "-//W3C//DTD SVG 1.1//EN"
 "http://www.w3.org/Graphics/SVG/1.1/DTD/svg11.dtd">
<!-- Generated by graphviz version 2.43.0 (0)
 -->
<!-- Title: Evaluation Pages: 1 -->
<svg width="487pt" height="249pt"
 viewBox="0.00 0.00 486.87 249.00" xmlns="http://www.w3.org/2000/svg" xmlns:xlink="http://www.w3.org/1999/xlink">
<g id="graph0" class="graph" transform="scale(1 1) rotate(0) translate(4 245)">
<title>Evaluation</title>
<polygon fill="white" stroke="transparent" points="-4,4 -4,-245 482.87,-245 482.87,4 -4,4"/>
<text text-anchor="middle" x="239.44" y="-225.8" font-family="Times,serif" font-size="14.00">step 0006 :: •RL skipped</text>
<!-- n1 -->
<g id="node1" class="node">
<title>n1</title>
<ellipse fill="#eeeeff" stroke="black" cx="32.5" cy="-172" rx="32.49" ry="18"/>
<text text-anchor="middle" x="32.5" y="-168.3" font-family="monospace" font-size="14.00">pair</text>
</g>
<!-- n2 -->
<g id="node2" class="node">
<title>n2</title>
<ellipse fill="#ddffee" stroke="black" cx="424.93" cy="-108" rx="53.89" ry="53.89"/>
<text text-anchor="middle" x="424.93" y="-104.3" font-family="monospace" font-size="14.00">binder#3</text>
</g>
<!-- n1&#45;&gt;n2 -->
<g id="edge1" class="edge">
<title>n1&#45;&gt;n2</title>
<path fill="none" stroke="black" d="M61.41,-180.23C118.75,-195.57 252.8,-223.34 352.98,-181 365.05,-175.9 376.07,-167.64 385.65,-158.47"/>
<polygon fill="black" stroke="black" points="388.16,-160.9 392.68,-151.32 383.17,-155.99 388.16,-160.9"/>
<text text-anchor="middle" x="197.49" y="-206.8" font-family="monospace" font-size="14.00">L</text>
</g>
<!-- n3 -->
<g id="node3" class="node">
<title>n3</title>
<ellipse fill="#eeeeff" stroke="black" cx="142.49" cy="-146" rx="32.49" ry="18"/>
<text text-anchor="middle" x="142.49" y="-142.3" font-family="monospace" font-size="14.00">pair</text>
</g>
<!-- n1&#45;&gt;n3 -->
<g id="edge2" class="edge">
<title>n1&#45;&gt;n3</title>
<path fill="none" stroke="black" d="M62.72,-164.96C74.97,-162.02 89.38,-158.55 102.51,-155.38"/>
<polygon fill="black" stroke="black" points="103.34,-158.79 112.24,-153.04 101.7,-151.98 103.34,-158.79"/>
<text text-anchor="middle" x="87.49" y="-163.8" font-family="monospace" font-size="14.00">R</text>
</g>
<!-- n4 -->
<g id="node4" class="node">
<title>n4</title>
<ellipse fill="#eeeeff" stroke="#dd3333" stroke-width="2" cx="252.49" cy="-89" rx="32.49" ry="18"/>
<text text-anchor="middle" x="252.49" y="-85.3" font-family="monospace" font-size="14.00">pair</text>
</g>
<!-- n3&#45;&gt;n4 -->
<g id="edge3" class="edge">
<title>n3&#45;&gt;n4</title>
<path fill="none" stroke="black" d="M166.66,-133.77C182.03,-125.66 202.42,-114.9 219.36,-105.96"/>
<polygon fill="black" stroke="black" points="221.15,-108.97 228.36,-101.21 217.88,-102.78 221.15,-108.97"/>
<text text-anchor="middle" x="197.49" y="-123.8" font-family="monospace" font-size="14.00">L</text>
</g>
<!-- n6 -->
<g id="node6" class="node">
<title>n6</title>
<ellipse fill="#eeeeff" stroke="black" cx="252.49" cy="-146" rx="32.49" ry="18"/>
<text text-anchor="middle" x="252.49" y="-142.3" font-family="monospace" font-size="14.00">pair</text>
</g>
<!-- n3&#45;&gt;n6 -->
<g id="edge6" class="edge">
<title>n3&#45;&gt;n6</title>
<path fill="none" stroke="black" d="M175.02,-146C185.79,-146 198.02,-146 209.48,-146"/>
<polygon fill="black" stroke="black" points="209.73,-149.5 219.73,-146 209.73,-142.5 209.73,-149.5"/>
<text text-anchor="middle" x="197.49" y="-149.8" font-family="monospace" font-size="14.00">R</text>
</g>
<!-- n4&#45;&gt;n2 -->
<g id="edge5" class="edge">
<title>n4&#45;&gt;n2</title>
<path fill="none" stroke="black" d="M284.99,-87.41C304.62,-86.89 330.37,-87.06 352.98,-90 356.2,-90.42 359.47,-90.93 362.77,-91.52"/>
<polygon fill="black" stroke="black" points="362.18,-94.97 372.67,-93.47 363.54,-88.1 362.18,-94.97"/>
<text text-anchor="middle" x="327.98" y="-93.8" font-family="monospace" font-size="14.00">R slot</text>
</g>
<!-- n5 -->
<g id="node5" class="node">
<title>n5</title>
<text text-anchor="middle" x="424.93" y="-14.3" font-family="monospace" font-size="14.00">a</text>
</g>
<!-- n4&#45;&gt;n5 -->
<g id="edge4" class="edge">
<title>n4&#45;&gt;n5</title>
<path fill="none" stroke="black" d="M279,-78.37C307.95,-66.31 355.38,-46.55 388.05,-32.95"/>
<polygon fill="black" stroke="black" points="389.79,-36.01 397.68,-28.94 387.1,-29.55 389.79,-36.01"/>
<text text-anchor="middle" x="327.98" y="-72.8" font-family="monospace" font-size="14.00">L</text>
</g>
<!-- n6&#45;&gt;n2 -->
<g id="edge8" class="edge">
<title>n6&#45;&gt;n2</title>
<path fill="none" stroke="black" d="M279.15,-135.65C286.73,-132.87 295.11,-130.06 302.98,-128 321.66,-123.11 342.28,-119.17 361.13,-116.13"/>
<polygon fill="black" stroke="black" points="361.75,-119.57 371.09,-114.57 360.67,-112.65 361.75,-119.57"/>
<text text-anchor="middle" x="327.98" y="-131.8" font-family="monospace" font-size="14.00">R slot</text>
</g>
<!-- n7 -->
<g id="node7" class="node">
<title>n7</title>
<text text-anchor="middle" x="424.93" y="-194.3" font-family="monospace" font-size="14.00">b</text>
</g>
<!-- n6&#45;&gt;n7 -->
<g id="edge7" class="edge">
<title>n6&#45;&gt;n7</title>
<path fill="none" stroke="black" d="M281.25,-154.47C310.36,-163.35 356.21,-177.34 388.05,-187.05"/>
<polygon fill="black" stroke="black" points="387.27,-190.47 397.85,-190.05 389.31,-183.78 387.27,-190.47"/>
<text text-anchor="middle" x="327.98" y="-179.8" font-family="monospace" font-size="14.00">L</text>
</g>
</g>
</svg>
