<?xml version="1.0" encoding="UTF-8" standalone="no"?>
<!DOCTYPE svg PUBLIC "-//W3C//DTD SVG 1.1//EN"
 "http://www.w3.org/Graphics/SVG/1.1/DTD/svg11.dtd">
<!-- Generated by graphviz version 2.43.0 (0)
 -->
<!-- Title: Evaluation Pages: 1 -->
<svg width="597pt" height="319pt"
 viewBox="0.00 0.00 596.87 318.95" xmlns="http://www.w3.org/2000/svg" xmlns:xlink="http://www.w3.org/1999/xlink">
<g id="graph0" class="graph" transform="scale(1 1) rotate(0) translate(4 314.95)">
<title>Evaluation</title>
<polygon fill="white" stroke="transparent" points="-4,4 -4,-314.95 592.87,-314.95 592.87,4 -4,4"/>
<text text-anchor="middle" x="294.43" y="-295.75" font-family="Times,serif" font-size="14.00">step 0003 :: •RR skipped</text>
<!-- n1 -->
<g id="node1" class="node">
<title>n1</title>
<ellipse fill="#eeeeff" stroke="black" cx="32.5" cy="-204" rx="32.49" ry="18"/>
<text text-anchor="middle" x="32.5" y="-200.3" font-family="monospace" font-size="14.00">pair</text>
</g>
<!-- n2 -->
<g id="node2" class="node">
<title>n2</title>
<ellipse fill="#ddffee" stroke="black" cx="534.92" cy="-234" rx="53.89" ry="53.89"/>
<text text-anchor="middle" x="534.92" y="-230.3" font-family="monospace" font-size="14.00">binder#2</text>
</g>
<!-- n1&#45;&gt;n2 -->
<g id="edge1" class="edge">
<title>n1&#45;&gt;n2</title>
<path fill="none" stroke="black" d="M59.67,-214.36C81.26,-221.98 112.89,-231 141.49,-231 141.49,-231 141.49,-231 363.48,-231 399,-231 438.67,-231.66 470.8,-232.36"/>
<polygon fill="black" stroke="black" points="470.88,-235.86 480.95,-232.59 471.03,-228.86 470.88,-235.86"/>
<text text-anchor="middle" x="252.49" y="-234.8" font-family="monospace" font-size="14.00">L</text>
</g>
<!-- n3 -->
<g id="node3" class="node">
<title>n3</title>
<ellipse fill="#eeeeff" stroke="black" cx="142.49" cy="-156" rx="32.49" ry="18"/>
<text text-anchor="middle" x="142.49" y="-152.3" font-family="monospace" font-size="14.00">pair</text>
</g>
<!-- n1&#45;&gt;n3 -->
<g id="edge2" class="edge">
<title>n1&#45;&gt;n3</title>
<path fill="none" stroke="black" d="M58.27,-192.99C72.71,-186.57 91.14,-178.38 106.98,-171.34"/>
<polygon fill="black" stroke="black" points="108.74,-174.39 116.46,-167.13 105.9,-167.99 108.74,-174.39"/>
<text text-anchor="middle" x="87.49" y="-185.8" font-family="monospace" font-size="14.00">R</text>
</g>
<!-- n4 -->
<g id="node4" class="node">
<title>n4</title>
<ellipse fill="#ddffee" stroke="black" cx="534.92" cy="-108" rx="53.89" ry="53.89"/>
<text text-anchor="middle" x="534.92" y="-104.3" font-family="monospace" font-size="14.00">binder#3</text>
</g>
<!-- n3&#45;&gt;n4 -->
<g id="edge3" class="edge">
<title>n3&#45;&gt;n4</title>
<path fill="none" stroke="black" d="M168.84,-145.09C183.51,-139.28 202.47,-132.61 219.99,-129 305.51,-111.39 406.63,-107.59 470.53,-107.21"/>
<polygon fill="black" stroke="black" points="470.85,-110.71 480.84,-107.18 470.83,-103.71 470.85,-110.71"/>
<text text-anchor="middle" x="307.48" y="-119.8" font-family="monospace" font-size="14.00">L</text>
</g>
<!-- n5 -->
<g id="node5" class="node">
<title>n5</title>
<ellipse fill="#eeeeff" stroke="#dd3333" stroke-width="2" cx="252.49" cy="-156" rx="32.49" ry="18"/>
<text text-anchor="middle" x="252.49" y="-152.3" font-family="monospace" font-size="14.00">pair</text>
</g>
<!-- n3&#45;&gt;n5 -->
<g id="edge4" class="edge">
<title>n3&#45;&gt;n5</title>
<path fill="none" stroke="black" d="M175.02,-156C185.79,-156 198.02,-156 209.48,-156"/>
<polygon fill="black" stroke="black" points="209.73,-159.5 219.73,-156 209.73,-152.5 209.73,-159.5"/>
<text text-anchor="middle" x="197.49" y="-159.8" font-family="monospace" font-size="14.00">R</text>
</g>
<!-- n6 -->
<g id="node6" class="node">
<title>n6</title>
<ellipse fill="#eeeeff" stroke="black" cx="362.48" cy="-64" rx="32.49" ry="18"/>
<text text-anchor="middle" x="362.48" y="-60.3" font-family="monospace" font-size="14.00">pair</text>
</g>
<!-- n5&#45;&gt;n6 -->
<g id="edge5" class="edge">
<title>n5&#45;&gt;n6</title>
<path fill="none" stroke="black" d="M258.97,-138.21C265.93,-118.84 279.88,-88.56 302.98,-73 308.01,-69.62 313.82,-67.31 319.78,-65.77"/>
<polygon fill="black" stroke="black" points="320.71,-69.16 329.87,-63.85 319.39,-62.29 320.71,-69.16"/>
<text text-anchor="middle" x="307.48" y="-76.8" font-family="monospace" font-size="14.00">L</text>
</g>
<!-- n8 -->
<g id="node8" class="node">
<title>n8</title>
<ellipse fill="#eeeeff" stroke="black" cx="362.48" cy="-156" rx="32.49" ry="18"/>
<text text-anchor="middle" x="362.48" y="-152.3" font-family="monospace" font-size="14.00">pair</text>
</g>
<!-- n5&#45;&gt;n8 -->
<g id="edge8" class="edge">
<title>n5&#45;&gt;n8</title>
<path fill="none" stroke="black" d="M285.01,-156C295.78,-156 308.01,-156 319.47,-156"/>
<polygon fill="black" stroke="black" points="319.73,-159.5 329.73,-156 319.73,-152.5 319.73,-159.5"/>
<text text-anchor="middle" x="307.48" y="-159.8" font-family="monospace" font-size="14.00">R</text>
</g>
<!-- n6&#45;&gt;n4 -->
<g id="edge7" class="edge">
<title>n6&#45;&gt;n4</title>
<path fill="none" stroke="black" d="M394.3,-67.69C414.12,-70.45 440.32,-74.82 462.98,-81 466.98,-82.09 471.08,-83.33 475.17,-84.65"/>
<polygon fill="black" stroke="black" points="474.12,-87.98 484.71,-87.87 476.36,-81.35 474.12,-87.98"/>
<text text-anchor="middle" x="437.98" y="-84.8" font-family="monospace" font-size="14.00">R slot</text>
</g>
<!-- n7 -->
<g id="node7" class="node">
<title>n7</title>
<text text-anchor="middle" x="534.92" y="-14.3" font-family="monospace" font-size="14.00">a</text>
</g>
<!-- n6&#45;&gt;n7 -->
<g id="edge6" class="edge">
<title>n6&#45;&gt;n7</title>
<path fill="none" stroke="black" d="M392.01,-56.3C421.17,-48.43 466.53,-36.19 498.1,-27.67"/>
<polygon fill="black" stroke="black" points="499.08,-31.03 507.82,-25.04 497.25,-24.27 499.08,-31.03"/>
<text text-anchor="middle" x="437.98" y="-54.8" font-family="monospace" font-size="14.00">L</text>
</g>
<!-- n8&#45;&gt;n2 -->
<g id="edge9" class="edge">
<title>n8&#45;&gt;n2</title>
<path fill="none" stroke="black" d="M388.26,-167.34C411.27,-177.87 446.39,-193.94 476.38,-207.67"/>
<polygon fill="black" stroke="black" points="474.96,-210.86 485.51,-211.84 477.87,-204.5 474.96,-210.86"/>
<text text-anchor="middle" x="437.98" y="-203.8" font-family="monospace" font-size="14.00">L slot</text>
</g>
<!-- n8&#45;&gt;n4 -->
<g id="edge10" class="edge">
<title>n8&#45;&gt;n4</title>
<path fill="none" stroke="black" d="M392.01,-147.97C414.04,-141.76 445.32,-132.95 472.9,-125.18"/>
<polygon fill="black" stroke="black" points="474.2,-128.46 482.88,-122.38 472.3,-121.72 474.2,-128.46"/>
<text text-anchor="middle" x="437.98" y="-145.8" font-family="monospace" font-size="14.00">R slot</text>
</g>
</g>
</svg>
